<svg id="Layer_1" xmlns="http://www.w3.org/2000/svg" viewBox="-239 346.5 36 36"><style>.st0{enable-background:new}.st1{fill:red}</style><text transform="translate(-717 1032.272)" font-family="ArialMT" font-size="12">dots-a</text><path class="st1" d="M-699 1062.5c-2.8 0-5-2.2-5-5s2.2-5 5-5 5 2.2 5 5-2.2 5-5 5zM-717 1044.5c-2.8 0-5-2.2-5-5s2.2-5 5-5 5 2.2 5 5-2.2 5-5 5zM-717 1080.5c-2.8 0-5-2.2-5-5s2.2-5 5-5 5 2.2 5 5-2.2 5-5 5zM-681 1044.5c-2.8 0-5-2.2-5-5s2.2-5 5-5 5 2.2 5 5-2.2 5-5 5zM-681 1080.5c-2.8 0-5-2.2-5-5s2.2-5 5-5 5 2.2 5 5-2.2 5-5 5z"/></svg>