<svg id="Layer_1" xmlns="http://www.w3.org/2000/svg" viewBox="-239 346.5 36 36"><style>.st0{enable-background:new}.st1{fill:red}</style><text transform="translate(-717 1032.272)" font-family="ArialMT" font-size="12">dots-c</text><path class="st1" d="M-699 1068.5c-6.1 0-11-4.9-11-11s4.9-11 11-11 11 4.9 11 11-4.9 11-11 11zM-717 1050.5c-6.1 0-11-4.9-11-11s4.9-11 11-11 11 4.9 11 11-4.9 11-11 11zM-717 1086.5c-6.1 0-11-4.9-11-11s4.9-11 11-11 11 4.9 11 11-4.9 11-11 11zM-681 1050.5c-6.1 0-11-4.9-11-11s4.9-11 11-11 11 4.9 11 11-4.9 11-11 11zM-681 1086.5c-6.1 0-11-4.9-11-11s4.9-11 11-11 11 4.9 11 11-4.9 11-11 11z"/></svg>