<svg id="Layer_1" xmlns="http://www.w3.org/2000/svg" viewBox="-239 346.5 36 36"><style>.st0{enable-background:new}.st1{fill:red}</style><text transform="translate(-717 1032.272)" font-family="ArialMT" font-size="12">dots-b</text><path class="st1" d="M-699 1065.5c-4.4 0-8-3.6-8-8s3.6-8 8-8 8 3.6 8 8-3.6 8-8 8zM-717 1047.5c-4.4 0-8-3.6-8-8s3.6-8 8-8 8 3.6 8 8-3.6 8-8 8zM-717 1083.5c-4.4 0-8-3.6-8-8s3.6-8 8-8 8 3.6 8 8-3.6 8-8 8zM-681 1047.5c-4.4 0-8-3.6-8-8s3.6-8 8-8 8 3.6 8 8-3.6 8-8 8zM-681 1083.5c-4.4 0-8-3.6-8-8s3.6-8 8-8 8 3.6 8 8-3.6 8-8 8z"/></svg>