<?xml version="1.0" encoding="UTF-8"?>
<svg width="36px" height="36px" viewBox="0 0 36 36" version="1.1" xmlns="http://www.w3.org/2000/svg" xmlns:xlink="http://www.w3.org/1999/xlink">
    <!-- Generator: Sketch 50.2 (55047) - http://www.bohemiancoding.com/sketch -->
    <title>dots-b</title>
    <desc>Created with Sketch.</desc>
    <defs></defs>
    <g id="dots-b" stroke="none" stroke-width="1" fill="none" fill-rule="evenodd">
        <path d="M18,26 C13.6,26 10,22.4 10,18 C10,13.6 13.6,10 18,10 C22.4,10 26,13.6 26,18 C26,22.4 22.4,26 18,26 Z" id="Shape" fill="#FF0000" fill-rule="nonzero"></path>
        <path d="M0,8 C-4.4,8 -8,4.4 -8,0 C-8,-4.4 -4.4,-8 0,-8 C4.4,-8 8,-4.4 8,0 C8,4.4 4.4,8 0,8 Z" id="Shape" fill="#FF0000" fill-rule="nonzero"></path>
        <path d="M0,44 C-4.4,44 -8,40.4 -8,36 C-8,31.6 -4.4,28 0,28 C4.4,28 8,31.6 8,36 C8,40.4 4.4,44 0,44 Z" id="Shape" fill="#FF0000" fill-rule="nonzero"></path>
        <path d="M36,8 C31.6,8 28,4.4 28,0 C28,-4.4 31.6,-8 36,-8 C40.4,-8 44,-4.4 44,0 C44,4.4 40.4,8 36,8 Z" id="Shape" fill="#FF0000" fill-rule="nonzero"></path>
        <path d="M36,44 C31.6,44 28,40.4 28,36 C28,31.6 31.6,28 36,28 C40.4,28 44,31.6 44,36 C44,40.4 40.4,44 36,44 Z" id="Shape" fill="#FF0000" fill-rule="nonzero"></path>
    </g>
</svg>