<?xml version="1.0" encoding="UTF-8"?>
<svg width="36px" height="36px" viewBox="0 0 36 36" version="1.1" xmlns="http://www.w3.org/2000/svg" xmlns:xlink="http://www.w3.org/1999/xlink">
    <!-- Generator: Sketch 50.2 (55047) - http://www.bohemiancoding.com/sketch -->
    <title>dots-a</title>
    <desc>Created with Sketch.</desc>
    <defs></defs>
    <g id="dots-a" stroke="none" stroke-width="1" fill="none" fill-rule="evenodd">
        <path d="M18,23 C15.2,23 13,20.8 13,18 C13,15.2 15.2,13 18,13 C20.8,13 23,15.2 23,18 C23,20.8 20.8,23 18,23 Z" id="Shape" fill="#FF0000" fill-rule="nonzero"></path>
        <path d="M0,5 C-2.8,5 -5,2.8 -5,0 C-5,-2.8 -2.8,-5 0,-5 C2.8,-5 5,-2.8 5,0 C5,2.8 2.8,5 0,5 Z" id="Shape" fill="#FF0000" fill-rule="nonzero"></path>
        <path d="M0,41 C-2.8,41 -5,38.8 -5,36 C-5,33.2 -2.8,31 0,31 C2.8,31 5,33.2 5,36 C5,38.8 2.8,41 0,41 Z" id="Shape" fill="#FF0000" fill-rule="nonzero"></path>
        <path d="M36,5 C33.2,5 31,2.8 31,0 C31,-2.8 33.2,-5 36,-5 C38.8,-5 41,-2.8 41,0 C41,2.8 38.8,5 36,5 Z" id="Shape" fill="#FF0000" fill-rule="nonzero"></path>
        <path d="M36,41 C33.2,41 31,38.8 31,36 C31,33.2 33.2,31 36,31 C38.8,31 41,33.2 41,36 C41,38.8 38.8,41 36,41 Z" id="Shape" fill="#FF0000" fill-rule="nonzero"></path>
    </g>
</svg>