<?xml version="1.0" encoding="UTF-8"?>
<svg width="36px" height="36px" viewBox="0 0 36 36" version="1.1" xmlns="http://www.w3.org/2000/svg" xmlns:xlink="http://www.w3.org/1999/xlink">
    <!-- Generator: Sketch 50.2 (55047) - http://www.bohemiancoding.com/sketch -->
    <title>dots-c</title>
    <desc>Created with Sketch.</desc>
    <defs></defs>
    <g id="dots-c" stroke="none" stroke-width="1" fill="none" fill-rule="evenodd">
        <path d="M18,29 C11.9,29 7,24.1 7,18 C7,11.9 11.9,7 18,7 C24.1,7 29,11.9 29,18 C29,24.1 24.1,29 18,29 Z" id="Shape" fill="#FF0000" fill-rule="nonzero"></path>
        <path d="M0,11 C-6.1,11 -11,6.1 -11,0 C-11,-6.1 -6.1,-11 0,-11 C6.1,-11 11,-6.1 11,0 C11,6.1 6.1,11 0,11 Z" id="Shape" fill="#FF0000" fill-rule="nonzero"></path>
        <path d="M0,47 C-6.1,47 -11,42.1 -11,36 C-11,29.9 -6.1,25 0,25 C6.1,25 11,29.9 11,36 C11,42.1 6.1,47 0,47 Z" id="Shape" fill="#FF0000" fill-rule="nonzero"></path>
        <path d="M36,11 C29.9,11 25,6.1 25,0 C25,-6.1 29.9,-11 36,-11 C42.1,-11 47,-6.1 47,0 C47,6.1 42.1,11 36,11 Z" id="Shape" fill="#FF0000" fill-rule="nonzero"></path>
        <path d="M36,47 C29.9,47 25,42.1 25,36 C25,29.9 29.9,25 36,25 C42.1,25 47,29.9 47,36 C47,42.1 42.1,47 36,47 Z" id="Shape" fill="#FF0000" fill-rule="nonzero"></path>
    </g>
</svg>