<?xml version="1.0" encoding="utf-8"?>
<!-- Generator: Adobe Illustrator 19.0.0, SVG Export Plug-In . SVG Version: 6.00 Build 0)  -->
<svg version="1.1" id="Layer_1" xmlns="http://www.w3.org/2000/svg" xmlns:xlink="http://www.w3.org/1999/xlink" x="0px" y="0px"
	 viewBox="-239 346.5 36 36" style="enable-background:new -239 346.5 36 36;" xml:space="preserve">
<style type="text/css">
	.st0{fill:#FF0000;}
</style>
<path class="st0" d="M-938,1412c-4.4,0-8-3.6-8-8s3.6-8,8-8s8,3.6,8,8S-933.6,1412-938,1412z"/>
<path class="st0" d="M-956,1394c-4.4,0-8-3.6-8-8s3.6-8,8-8s8,3.6,8,8S-951.6,1394-956,1394z"/>
<path class="st0" d="M-956,1430c-4.4,0-8-3.6-8-8s3.6-8,8-8s8,3.6,8,8S-951.6,1430-956,1430z"/>
<path class="st0" d="M-920,1394c-4.4,0-8-3.6-8-8s3.6-8,8-8s8,3.6,8,8S-915.6,1394-920,1394z"/>
<path class="st0" d="M-920,1430c-4.4,0-8-3.6-8-8s3.6-8,8-8s8,3.6,8,8S-915.6,1430-920,1430z"/>
</svg>
