<?xml version="1.0" encoding="utf-8"?>
<!-- Generator: Adobe Illustrator 19.0.0, SVG Export Plug-In . SVG Version: 6.00 Build 0)  -->
<svg version="1.1" id="Layer_1" xmlns="http://www.w3.org/2000/svg" xmlns:xlink="http://www.w3.org/1999/xlink" x="0px" y="0px"
	 viewBox="-239 346.5 36 36" style="enable-background:new -239 346.5 36 36;" xml:space="preserve">
<style type="text/css">
	.st0{fill:#FF0000;}
</style>
<path class="st0" d="M-938,1415c-6.1,0-11-4.9-11-11s4.9-11,11-11s11,4.9,11,11S-931.9,1415-938,1415z"/>
<path class="st0" d="M-956,1397c-6.1,0-11-4.9-11-11s4.9-11,11-11s11,4.9,11,11S-949.9,1397-956,1397z"/>
<path class="st0" d="M-956,1433c-6.1,0-11-4.9-11-11s4.9-11,11-11s11,4.9,11,11S-949.9,1433-956,1433z"/>
<path class="st0" d="M-920,1397c-6.1,0-11-4.9-11-11s4.9-11,11-11s11,4.9,11,11S-913.9,1397-920,1397z"/>
<path class="st0" d="M-920,1433c-6.1,0-11-4.9-11-11s4.9-11,11-11s11,4.9,11,11S-913.9,1433-920,1433z"/>
</svg>
