<?xml version="1.0" encoding="utf-8"?>
<!-- Generator: Adobe Illustrator 19.0.0, SVG Export Plug-In . SVG Version: 6.00 Build 0)  -->
<svg version="1.1" id="Layer_1" xmlns="http://www.w3.org/2000/svg" xmlns:xlink="http://www.w3.org/1999/xlink" x="0px" y="0px"
	 viewBox="-239 346.5 36 36" style="enable-background:new -239 346.5 36 36;" xml:space="preserve">
<style type="text/css">
	.st0{fill:#FF0000;}
</style>
<path class="st0" d="M-938,1409c-2.8,0-5-2.2-5-5s2.2-5,5-5s5,2.2,5,5S-935.2,1409-938,1409z"/>
<path class="st0" d="M-956,1391c-2.8,0-5-2.2-5-5s2.2-5,5-5s5,2.2,5,5S-953.2,1391-956,1391z"/>
<path class="st0" d="M-956,1427c-2.8,0-5-2.2-5-5s2.2-5,5-5s5,2.2,5,5S-953.2,1427-956,1427z"/>
<path class="st0" d="M-920,1391c-2.8,0-5-2.2-5-5s2.2-5,5-5s5,2.2,5,5S-917.2,1391-920,1391z"/>
<path class="st0" d="M-920,1427c-2.8,0-5-2.2-5-5s2.2-5,5-5s5,2.2,5,5S-917.2,1427-920,1427z"/>
</svg>
