<?xml version="1.0" encoding="utf-8"?>
<!-- Generator: Adobe Illustrator 19.0.0, SVG Export Plug-In . SVG Version: 6.00 Build 0)  -->
<svg version="1.1" id="Layer_1" xmlns="http://www.w3.org/2000/svg" xmlns:xlink="http://www.w3.org/1999/xlink" x="0px" y="0px"
	 viewBox="-239 346.5 36 36" style="enable-background:new -239 346.5 36 36;" xml:space="preserve">
<style type="text/css">
	.st0{enable-background:new    ;}
	.st1{fill:#FF0000;}
</style>
<text transform="matrix(1 0 0 1 -717 1032.2715)" style="font-family:'ArialMT'; font-size:12px;">dots-b</text>
<path class="st1" d="M-699,1065.5c-4.4,0-8-3.6-8-8s3.6-8,8-8s8,3.6,8,8S-694.6,1065.5-699,1065.5z"/>
<path class="st1" d="M-717,1047.5c-4.4,0-8-3.6-8-8s3.6-8,8-8s8,3.6,8,8S-712.6,1047.5-717,1047.5z"/>
<path class="st1" d="M-717,1083.5c-4.4,0-8-3.6-8-8s3.6-8,8-8s8,3.6,8,8S-712.6,1083.5-717,1083.5z"/>
<path class="st1" d="M-681,1047.5c-4.4,0-8-3.6-8-8s3.6-8,8-8s8,3.6,8,8S-676.6,1047.5-681,1047.5z"/>
<path class="st1" d="M-681,1083.5c-4.4,0-8-3.6-8-8s3.6-8,8-8s8,3.6,8,8S-676.6,1083.5-681,1083.5z"/>
</svg>
