<?xml version="1.0" encoding="utf-8"?>
<!-- Generator: Adobe Illustrator 19.0.0, SVG Export Plug-In . SVG Version: 6.00 Build 0)  -->
<svg version="1.1" id="Layer_1" xmlns="http://www.w3.org/2000/svg" xmlns:xlink="http://www.w3.org/1999/xlink" x="0px" y="0px"
	 viewBox="-239 346.5 36 36" style="enable-background:new -239 346.5 36 36;" xml:space="preserve">
<style type="text/css">
	.st0{enable-background:new    ;}
	.st1{fill:#FF0000;}
</style>
<text transform="matrix(1 0 0 1 -717 1032.2715)" style="font-family:'ArialMT'; font-size:12px;">dots-c</text>
<path class="st1" d="M-699,1068.5c-6.1,0-11-4.9-11-11s4.9-11,11-11s11,4.9,11,11S-692.9,1068.5-699,1068.5z"/>
<path class="st1" d="M-717,1050.5c-6.1,0-11-4.9-11-11s4.9-11,11-11s11,4.9,11,11S-710.9,1050.5-717,1050.5z"/>
<path class="st1" d="M-717,1086.5c-6.1,0-11-4.9-11-11s4.9-11,11-11s11,4.9,11,11S-710.9,1086.5-717,1086.5z"/>
<path class="st1" d="M-681,1050.5c-6.1,0-11-4.9-11-11s4.9-11,11-11s11,4.9,11,11S-674.9,1050.5-681,1050.5z"/>
<path class="st1" d="M-681,1086.5c-6.1,0-11-4.9-11-11s4.9-11,11-11s11,4.9,11,11S-674.9,1086.5-681,1086.5z"/>
</svg>
