<?xml version="1.0" encoding="utf-8"?>
<!-- Generator: Adobe Illustrator 19.0.0, SVG Export Plug-In . SVG Version: 6.00 Build 0)  -->
<svg version="1.1" id="Layer_1" xmlns="http://www.w3.org/2000/svg" xmlns:xlink="http://www.w3.org/1999/xlink" x="0px" y="0px"
	 viewBox="-388 390 22 22" style="enable-background:new -388 390 22 22;" xml:space="preserve">
<style type="text/css">
	.st0{fill:#00FF00;}
</style>
<g>
	<path class="st0" d="M-383.5,410.7c0.2,0,0.3,0,0.5-0.1l7.5-2.2c1-0.3,1.5-1.3,1.2-2.3c-0.3-1-1.3-1.5-2.3-1.2l-7.5,2.2
		c-1,0.3-1.5,1.3-1.2,2.3C-385,410.2-384.2,410.7-383.5,410.7z"/>
	<path class="st0" d="M-382.7,394.5c0.2,0,0.5,0,0.7-0.1c0.9-0.4,1.4-1.4,1-2.4l-0.8-2.1h-3.9l1.4,3.4
		C-384.1,394.1-383.5,394.5-382.7,394.5z"/>
	<path class="st0" d="M-386.4,400l8.5,3.8c0.2,0.1,0.5,0.2,0.7,0.2c0.7,0,1.4-0.4,1.7-1.1c0.4-0.9,0-2-0.9-2.4l-8.5-3.8
		c-0.9-0.4-2,0-2.4,0.9C-387.7,398.5-387.3,399.6-386.4,400z"/>
	<path class="st0" d="M-372.2,403.1c0.1,0,0.2,0,0.4,0c1-0.2,1.6-1.2,1.4-2.1l-1.6-8.2c-0.2-1-1.2-1.6-2.1-1.4
		c-1,0.2-1.6,1.2-1.4,2.1l1.6,8.2C-373.8,402.5-373,403.1-372.2,403.1z"/>
	<path class="st0" d="M-366,410.4l-4-1.3c-1-0.3-2,0.2-2.3,1.1c-0.2,0.7,0,1.4,0.4,1.9h5.8V410.4z"/>
	<path class="st0" d="M-366.8,390l-0.6,1.8c-0.3,1,0.2,2,1.2,2.3c0.1,0,0.1,0,0.2,0V390H-366.8z"/>
	<polygon class="st0" points="-388,412 -385.6,412 -388,409.6 	"/>
	<path class="st0" d="M-368.1,405.3c-0.3,1,0.2,2,1.2,2.3c0.2,0.1,0.4,0.1,0.6,0.1c0.1,0,0.2,0,0.4-0.1v-8.9L-368.1,405.3z"/>
</g>
</svg>
