<?xml version="1.0" encoding="utf-8"?>
<!-- Generator: Adobe Illustrator 19.0.0, SVG Export Plug-In . SVG Version: 6.00 Build 0)  -->
<svg version="1.1" id="Layer_1" xmlns="http://www.w3.org/2000/svg" xmlns:xlink="http://www.w3.org/1999/xlink" x="0px" y="0px"
	 viewBox="-388 390 22 22" style="enable-background:new -388 390 22 22;" xml:space="preserve">
<style type="text/css">
	.st0{fill:#00FF00;}
</style>
<g>
	<path class="st0" d="M-386.8,400.9l8.4,3.7l-5.8,1.7c-1.4,0.4-2.3,1.9-1.9,3.4c0.3,1.2,1.4,2,2.6,2c0.3,0,0.5,0,0.8-0.1l7.5-2.2
		c1.4-0.4,2.3-1.9,1.9-3.4c-0.3-0.9-1-1.6-1.8-1.8c0.2-0.2,0.5-0.5,0.6-0.8c0.1-0.2,0.1-0.3,0.2-0.5c0.5,0.7,1.3,1.2,2.2,1.2
		c0.2,0,0.4,0,0.5-0.1c1.5-0.3,2.4-1.7,2.1-3.2l-1.6-8.2c-0.3-1.5-1.7-2.4-3.2-2.1c-1.5,0.3-2.4,1.7-2.1,3.2l1.3,6.6
		c-0.2-0.2-0.5-0.4-0.8-0.6l-8.5-3.8c-1.3-0.6-2.8-0.1-3.5,1.2v2.7C-387.7,400.2-387.3,400.6-386.8,400.9z"/>
	<path class="st0" d="M-382.7,395.5c0.3,0,0.7-0.1,1-0.2c1.4-0.6,2.1-2.1,1.5-3.5l-0.7-1.7h-5.9l1.5,3.7
		C-384.8,394.8-383.8,395.5-382.7,395.5z"/>
	<polygon class="st0" points="-388,412 -384.3,412 -388,408.3 	"/>
	<path class="st0" d="M-366,409.4l-3.7-1.3c-1.4-0.5-3,0.3-3.5,1.7c-0.3,0.7-0.2,1.5,0.2,2.2h7V409.4z"/>
	<path class="st0" d="M-367.7,390l-0.5,1.5c-0.5,1.4,0.3,3,1.8,3.4c0.2,0.1,0.3,0.1,0.5,0.1V390H-367.7z"/>
	<path class="st0" d="M-366.6,397.5l-2.4,7.5c-0.5,1.4,0.3,3,1.8,3.4c0.3,0.1,0.6,0.1,0.8,0.1c0.1,0,0.2,0,0.4,0v-12
		C-366.3,396.8-366.5,397.1-366.6,397.5z"/>
</g>
</svg>
