<?xml version="1.0" encoding="utf-8"?>
<!-- Generator: Adobe Illustrator 19.0.0, SVG Export Plug-In . SVG Version: 6.00 Build 0)  -->
<svg version="1.1" id="Layer_1" xmlns="http://www.w3.org/2000/svg" xmlns:xlink="http://www.w3.org/1999/xlink" x="0px" y="0px"
	 viewBox="-388 390 22 22" style="enable-background:new -388 390 22 22;" xml:space="preserve">
<style type="text/css">
	.st0{fill:#00FF00;}
</style>
<g>
	<polygon class="st0" points="-366,390 -366,390.5 -365.8,390 	"/>
	<path class="st0" d="M-386,399.2l8.5,3.8c0.1,0.1,0.2,0.1,0.4,0.1c0.3,0,0.7-0.2,0.8-0.5c0.2-0.5,0-1-0.5-1.2l-8.5-3.8
		c-0.5-0.2-1,0-1.2,0.5C-386.7,398.5-386.5,399-386,399.2z"/>
	<path class="st0" d="M-383.5,409.8c0.1,0,0.2,0,0.3,0l7.5-2.2c0.5-0.1,0.8-0.6,0.6-1.1c-0.1-0.5-0.6-0.8-1.1-0.6l-7.5,2.2
		c-0.5,0.1-0.8,0.6-0.6,1.1C-384.2,409.6-383.8,409.8-383.5,409.8z"/>
	<path class="st0" d="M-374,392.2c-0.5,0.1-0.8,0.6-0.7,1.1l1.6,8.2c0.1,0.4,0.5,0.7,0.9,0.7c0.1,0,0.1,0,0.2,0
		c0.5-0.1,0.8-0.6,0.7-1.1l-1.6-8.2C-373,392.4-373.5,392.1-374,392.2z"/>
	<path class="st0" d="M-382.7,393.6c0.1,0,0.2,0,0.3-0.1c0.5-0.2,0.7-0.7,0.5-1.2l-1-2.4h-2l1.2,3.1
		C-383.4,393.4-383.1,393.6-382.7,393.6z"/>
	<path class="st0" d="M-367.2,405.5c-0.2,0.5,0.1,1,0.6,1.1c0.1,0,0.2,0,0.3,0c0.1,0,0.2,0,0.4-0.1v-5L-367.2,405.5z"/>
	<path class="st0" d="M-366,411.3l-4.3-1.5c-0.5-0.2-1,0.1-1.2,0.6c-0.2,0.5,0.1,1,0.6,1.2l1.2,0.4h3.6V411.3z"/>
	<polygon class="st0" points="-388,412 -386.9,412 -388,410.9 	"/>
	<path class="st0" d="M-366.5,392.1c-0.1,0.4,0.1,0.9,0.5,1.1v-2.6L-366.5,392.1z"/>
</g>
</svg>
