<?xml version="1.0" encoding="utf-8"?>
<!-- Generator: Adobe Illustrator 19.0.0, SVG Export Plug-In . SVG Version: 6.00 Build 0)  -->
<svg version="1.1" id="Layer_1" xmlns="http://www.w3.org/2000/svg" xmlns:xlink="http://www.w3.org/1999/xlink" x="0px" y="0px"
	 viewBox="-381 383 36 36" style="enable-background:new -381 383 36 36;" xml:space="preserve">
<style type="text/css">
	.st0{fill:#FF0000;}
	.st1{enable-background:new    ;}
</style>
<path class="st0" d="M-363,406c-2.8,0-5-2.2-5-5c0-2.8,2.2-5,5-5s5,2.2,5,5C-358,403.8-360.2,406-363,406z"/>
<path class="st0" d="M-381,388c-2.8,0-5-2.2-5-5c0-2.8,2.2-5,5-5c2.8,0,5,2.2,5,5C-376,385.8-378.2,388-381,388z"/>
<path class="st0" d="M-381,424c-2.8,0-5-2.2-5-5c0-2.8,2.2-5,5-5c2.8,0,5,2.2,5,5C-376,421.8-378.2,424-381,424z"/>
<path class="st0" d="M-345,388c-2.8,0-5-2.2-5-5c0-2.8,2.2-5,5-5s5,2.2,5,5C-340,385.8-342.2,388-345,388z"/>
<path class="st0" d="M-345,424c-2.8,0-5-2.2-5-5c0-2.8,2.2-5,5-5s5,2.2,5,5C-340,421.8-342.2,424-345,424z"/>
<text transform="matrix(1 0 0 1 -381 375.7715)" style="font-family:'ArialMT'; font-size:12px;">dots-a</text>
</svg>
