<?xml version="1.0" encoding="utf-8"?>
<!-- Generator: Adobe Illustrator 19.0.0, SVG Export Plug-In . SVG Version: 6.00 Build 0)  -->
<svg version="1.1" id="Layer_1" xmlns="http://www.w3.org/2000/svg" xmlns:xlink="http://www.w3.org/1999/xlink" x="0px" y="0px"
	 viewBox="-381 383 36 36" style="enable-background:new -381 383 36 36;" xml:space="preserve">
<style type="text/css">
	.st0{fill:#FF0000;}
	.st1{enable-background:new    ;}
</style>
<path class="st0" d="M-363,412c-6.1,0-11-4.9-11-11c0-6.1,4.9-11,11-11c6.1,0,11,4.9,11,11C-352,407.1-356.9,412-363,412z"/>
<path class="st0" d="M-381,394c-6.1,0-11-4.9-11-11c0-6.1,4.9-11,11-11c6.1,0,11,4.9,11,11C-370,389.1-374.9,394-381,394z"/>
<path class="st0" d="M-381,430c-6.1,0-11-4.9-11-11c0-6.1,4.9-11,11-11c6.1,0,11,4.9,11,11C-370,425.1-374.9,430-381,430z"/>
<path class="st0" d="M-345,394c-6.1,0-11-4.9-11-11c0-6.1,4.9-11,11-11c6.1,0,11,4.9,11,11C-334,389.1-338.9,394-345,394z"/>
<path class="st0" d="M-345,430c-6.1,0-11-4.9-11-11c0-6.1,4.9-11,11-11c6.1,0,11,4.9,11,11C-334,425.1-338.9,430-345,430z"/>
<text transform="matrix(1 0 0 1 -381 375.7715)" style="font-family:'ArialMT'; font-size:12px;">dots-c</text>
</svg>
