<?xml version="1.0" encoding="utf-8"?>
<!-- Generator: Adobe Illustrator 19.0.0, SVG Export Plug-In . SVG Version: 6.00 Build 0)  -->
<svg version="1.1" id="Layer_1" xmlns="http://www.w3.org/2000/svg" xmlns:xlink="http://www.w3.org/1999/xlink" x="0px" y="0px"
	 viewBox="-381 383 36 36" style="enable-background:new -381 383 36 36;" xml:space="preserve">
<style type="text/css">
	.st0{fill:#FF0000;}
	.st1{enable-background:new    ;}
</style>
<path class="st0" d="M-363,409c-4.4,0-8-3.6-8-8c0-4.4,3.6-8,8-8c4.4,0,8,3.6,8,8C-355,405.4-358.6,409-363,409z"/>
<path class="st0" d="M-381,391c-4.4,0-8-3.6-8-8c0-4.4,3.6-8,8-8c4.4,0,8,3.6,8,8C-373,387.4-376.6,391-381,391z"/>
<path class="st0" d="M-381,427c-4.4,0-8-3.6-8-8c0-4.4,3.6-8,8-8c4.4,0,8,3.6,8,8C-373,423.4-376.6,427-381,427z"/>
<path class="st0" d="M-345,391c-4.4,0-8-3.6-8-8c0-4.4,3.6-8,8-8c4.4,0,8,3.6,8,8C-337,387.4-340.6,391-345,391z"/>
<path class="st0" d="M-345,427c-4.4,0-8-3.6-8-8c0-4.4,3.6-8,8-8c4.4,0,8,3.6,8,8C-337,423.4-340.6,427-345,427z"/>
<text transform="matrix(1 0 0 1 -381 375.7715)" style="font-family:'ArialMT'; font-size:12px;">dots-b</text>
</svg>
