<?xml version="1.0" encoding="utf-8"?>
<!-- Generator: Adobe Illustrator 19.0.0, SVG Export Plug-In . SVG Version: 6.00 Build 0)  -->
<svg version="1.1" id="Layer_1" xmlns="http://www.w3.org/2000/svg" xmlns:xlink="http://www.w3.org/1999/xlink" x="0px" y="0px"
	 viewBox="-388 390 22 22" style="enable-background:new -388 390 22 22;" xml:space="preserve">
<style type="text/css">
	.st0{fill:none;stroke:#FF0000;stroke-width:0.25;stroke-linecap:round;stroke-linejoin:round;stroke-miterlimit:10;}
	.st1{enable-background:new    ;}
</style>
<line class="st0" x1="-383.9" y1="392.9" x2="-383.5" y2="393.3"/>
<line class="st0" x1="-376.9" y1="400.9" x2="-376.5" y2="401.3"/>
<line class="st0" x1="-377.9" y1="393.9" x2="-377.5" y2="394.2"/>
<line class="st0" x1="-383.5" y1="407" x2="-383.1" y2="407.3"/>
<line class="st0" x1="-374.5" y1="407.3" x2="-374.1" y2="407.6"/>
<line class="st0" x1="-368.5" y1="398.4" x2="-368.1" y2="398.8"/>
<line class="st0" x1="-371.8" y1="391.7" x2="-371.4" y2="392.1"/>
<line class="st0" x1="-381.2" y1="399.1" x2="-380.8" y2="399.5"/>
<line class="st0" x1="-371" y1="409.7" x2="-370.6" y2="410.1"/>
<line class="st0" x1="-369.4" y1="403.9" x2="-369" y2="404.2"/>
<line class="st0" x1="-373.6" y1="397.4" x2="-373.2" y2="397.7"/>
<line class="st0" x1="-387" y1="396.3" x2="-386.6" y2="396.7"/>
<line class="st0" x1="-386.6" y1="410.4" x2="-386.2" y2="410.7"/>
<line class="st0" x1="-379.3" y1="404.6" x2="-378.9" y2="404.9"/>
<text transform="matrix(1 0 0 1 -388 382.7715)" style="font-family:'ArialMT'; font-size:12px;">noise-a</text>
</svg>
