<?xml version="1.0" encoding="utf-8"?>
<!-- Generator: Adobe Illustrator 19.0.0, SVG Export Plug-In . SVG Version: 6.00 Build 0)  -->
<svg version="1.1" id="Layer_1" xmlns="http://www.w3.org/2000/svg" xmlns:xlink="http://www.w3.org/1999/xlink" x="0px" y="0px"
	 viewBox="-388 390 22 22" style="enable-background:new -388 390 22 22;" xml:space="preserve">
<style type="text/css">
	.st0{fill:none;stroke:#FF0000;stroke-width:0.25;stroke-linecap:round;stroke-linejoin:round;stroke-miterlimit:10;}
	.st1{enable-background:new    ;}
</style>
<line class="st0" x1="-386.8" y1="391.8" x2="-386.4" y2="392.2"/>
<line class="st0" x1="-378.5" y1="405.9" x2="-378.1" y2="406.3"/>
<line class="st0" x1="-380.9" y1="392.8" x2="-380.5" y2="393.1"/>
<line class="st0" x1="-381.4" y1="398.6" x2="-381" y2="398.9"/>
<line class="st0" x1="-373.8" y1="411.2" x2="-373.4" y2="411.5"/>
<line class="st0" x1="-368.5" y1="398.4" x2="-368.1" y2="398.8"/>
<line class="st0" x1="-374.8" y1="390.6" x2="-374.4" y2="391"/>
<line class="st0" x1="-383.5" y1="399.1" x2="-383.1" y2="399.5"/>
<line class="st0" x1="-371.2" y1="409" x2="-370.8" y2="409.3"/>
<line class="st0" x1="-368.5" y1="407.6" x2="-368.1" y2="407.9"/>
<line class="st0" x1="-378.1" y1="398.9" x2="-377.7" y2="399.3"/>
<line class="st0" x1="-386.6" y1="410.7" x2="-386.2" y2="411"/>
<line class="st0" x1="-372.7" y1="399.9" x2="-372.3" y2="400.2"/>
<line class="st0" x1="-376.4" y1="396" x2="-376" y2="396.3"/>
<line class="st0" x1="-381.2" y1="390" x2="-380.8" y2="390.3"/>
<line class="st0" x1="-375.8" y1="404.1" x2="-375.4" y2="404.5"/>
<line class="st0" x1="-367.7" y1="410.6" x2="-367.3" y2="411"/>
<line class="st0" x1="-387.7" y1="397.6" x2="-387.3" y2="397.9"/>
<line class="st0" x1="-387.7" y1="402.4" x2="-387.3" y2="402.7"/>
<line class="st0" x1="-386.4" y1="400.1" x2="-386" y2="400.4"/>
<line class="st0" x1="-377.9" y1="411" x2="-377.5" y2="411.4"/>
<line class="st0" x1="-382.1" y1="404.3" x2="-381.6" y2="404.6"/>
<line class="st0" x1="-371.8" y1="395.7" x2="-371.4" y2="396.1"/>
<line class="st0" x1="-369.4" y1="390.5" x2="-369" y2="390.8"/>
<line class="st0" x1="-368.3" y1="394.1" x2="-367.9" y2="394.4"/>
<line class="st0" x1="-385.6" y1="395.3" x2="-385.2" y2="395.7"/>
<line class="st0" x1="-373.6" y1="393.1" x2="-373.2" y2="393.4"/>
<line class="st0" x1="-382.5" y1="401.6" x2="-382.1" y2="402"/>
<line class="st0" x1="-385.8" y1="404.1" x2="-385.4" y2="404.5"/>
<line class="st0" x1="-378.7" y1="396.6" x2="-378.3" y2="396.9"/>
<line class="st0" x1="-377" y1="393.5" x2="-376.6" y2="393.9"/>
<line class="st0" x1="-375.2" y1="398.7" x2="-374.8" y2="399.1"/>
<line class="st0" x1="-376.8" y1="401.6" x2="-376.4" y2="402"/>
<line class="st0" x1="-367.9" y1="405.1" x2="-367.5" y2="405.4"/>
<line class="st0" x1="-369.5" y1="403.2" x2="-369.1" y2="403.5"/>
<line class="st0" x1="-382.5" y1="395.5" x2="-382.1" y2="395.9"/>
<line class="st0" x1="-380.4" y1="395" x2="-380" y2="395.3"/>
<line class="st0" x1="-372.9" y1="404.1" x2="-372.5" y2="404.5"/>
<line class="st0" x1="-380.4" y1="408.1" x2="-380" y2="408.5"/>
<line class="st0" x1="-375.4" y1="407.2" x2="-375" y2="407.5"/>
<line class="st0" x1="-371.8" y1="406.5" x2="-371.4" y2="406.9"/>
<line class="st0" x1="-383.1" y1="406.7" x2="-382.7" y2="407"/>
<line class="st0" x1="-384.5" y1="408.8" x2="-384.1" y2="409.2"/>
<line class="st0" x1="-367.2" y1="401.5" x2="-366.8" y2="401.8"/>
<line class="st0" x1="-384.7" y1="390.7" x2="-384.3" y2="391.1"/>
<line class="st0" x1="-384.4" y1="392.5" x2="-384" y2="392.8"/>
<text transform="matrix(1 0 0 1 -388 382.7715)" style="font-family:'ArialMT'; font-size:12px;">noise-b</text>
</svg>
